<svg width="21.654938" height="31.183105" viewBox="0 0 21.6549 31.1831" fill="none" xmlns="http://www.w3.org/2000/svg" xmlns:xlink="http://www.w3.org/1999/xlink">
	<desc>
			Created with Pixso.
	</desc>
	<defs/>
	<path id="Vector" d="M20.81 29.63L20.25 29.63C20.25 29.62 20.25 29.62 20.24 29.61L20.23 29.54C20.22 29.5 20.21 29.45 20.2 29.41C20.19 29.39 20.19 29.37 20.18 29.34C20.17 29.29 20.15 29.23 20.14 29.17L20.13 29.15C20.11 29.09 20.1 29.02 20.08 28.96L20.06 28.9C20.05 28.86 20.03 28.81 20.02 28.77C20.01 28.75 20 28.72 20 28.7C19.98 28.66 19.97 28.62 19.95 28.58C19.95 28.56 19.94 28.53 19.93 28.51C19.91 28.46 19.89 28.41 19.87 28.36C19.87 28.35 19.87 28.34 19.86 28.33C19.84 28.27 19.81 28.21 19.79 28.15C19.78 28.13 19.77 28.1 19.76 28.08C19.75 28.05 19.73 28 19.71 27.97L19.68 27.89C19.66 27.86 19.65 27.82 19.63 27.78C19.62 27.76 19.61 27.73 19.6 27.71C19.58 27.67 19.56 27.62 19.54 27.58C19.53 27.57 19.52 27.55 19.51 27.53C19.48 27.48 19.45 27.42 19.43 27.37L19.39 27.3L19.33 27.2L19.29 27.12C19.27 27.09 19.25 27.06 19.23 27.03C19.22 27 19.2 26.98 19.19 26.95C19.17 26.92 19.15 26.88 19.13 26.85L19.07 26.76C19.04 26.72 19.01 26.68 18.99 26.63C18.97 26.61 18.95 26.58 18.93 26.56C18.92 26.53 18.9 26.5 18.88 26.47C18.86 26.45 18.84 26.42 18.82 26.39C18.8 26.36 18.79 26.34 18.77 26.32C18.75 26.29 18.73 26.26 18.71 26.23L18.65 26.16C18.61 26.11 18.58 26.06 18.54 26.01L18.48 25.94C18.46 25.91 18.44 25.88 18.41 25.86L18.36 25.79C18.34 25.76 18.31 25.74 18.29 25.71L18.24 25.65L18.16 25.56L18.11 25.51C18.02 25.41 17.92 25.3 17.82 25.21L17.78 25.16L17.69 25.07L17.65 25.03C17.61 25 17.58 24.97 17.55 24.94L17.52 24.91C17.41 24.81 17.29 24.71 17.17 24.61L17.14 24.58C17.11 24.55 17.07 24.53 17.03 24.5L17 24.47C16.96 24.44 16.92 24.41 16.88 24.38L16.86 24.36C16.74 24.26 16.6 24.17 16.47 24.08L16.45 24.06C16.41 24.03 16.37 24.01 16.32 23.98L16.3 23.96C16.25 23.93 16.21 23.9 16.16 23.87L16.16 23.87C16.01 23.78 15.86 23.69 15.71 23.6L15.71 23.6C15.66 23.57 15.61 23.55 15.56 23.52L15.54 23.51C15.29 23.38 15.03 23.25 14.76 23.14L14.74 23.13C14.67 23.1 14.6 23.07 14.53 23.04L15.94 23.04C16.17 23.04 16.36 22.79 16.36 22.48C16.36 22.17 16.17 21.92 15.94 21.92L15.52 21.92C15.55 21.86 15.58 21.79 15.61 21.71C16.01 21.47 16.71 20.97 17.4 20.05L17.41 20.04C17.46 19.97 17.51 19.9 17.56 19.83L17.57 19.82C17.62 19.74 17.67 19.67 17.72 19.59L17.74 19.57C17.76 19.53 17.78 19.5 17.81 19.46C17.81 19.46 17.81 19.45 17.81 19.45C17.83 19.42 17.86 19.37 17.88 19.33L17.9 19.31C17.92 19.27 17.94 19.24 17.96 19.2C17.96 19.2 17.97 19.19 17.97 19.18C17.99 19.14 18.02 19.1 18.04 19.06L18.06 19.03C18.07 19 18.09 18.96 18.11 18.93C18.12 18.92 18.12 18.91 18.13 18.9C18.15 18.86 18.17 18.81 18.19 18.77L18.21 18.74C18.23 18.7 18.25 18.67 18.26 18.63L18.28 18.59C18.3 18.55 18.32 18.51 18.34 18.46L18.36 18.43C18.37 18.39 18.39 18.36 18.41 18.32L18.43 18.27C18.45 18.23 18.47 18.18 18.49 18.14C18.49 18.13 18.49 18.12 18.5 18.11C18.52 18.07 18.53 18.03 18.55 17.98L18.57 17.93C18.59 17.89 18.6 17.85 18.62 17.81L18.63 17.78C18.65 17.73 18.67 17.68 18.68 17.63L18.7 17.58C18.72 17.54 18.73 17.5 18.75 17.45C18.75 17.44 18.76 17.42 18.76 17.41C18.78 17.36 18.8 17.31 18.81 17.25C18.82 17.23 18.82 17.22 18.83 17.2L18.87 17.07C18.87 17.06 18.88 17.04 18.88 17.02C18.9 16.97 18.92 16.91 18.93 16.86C18.94 16.84 18.94 16.82 18.95 16.8C18.96 16.76 18.97 16.72 18.98 16.67C18.99 16.65 18.99 16.63 19 16.61C19.01 16.56 19.03 16.5 19.04 16.44L19.05 16.39C19.06 16.34 19.08 16.3 19.09 16.25L19.1 16.18C19.11 16.12 19.13 16.06 19.14 16C19.14 15.99 19.14 15.98 19.15 15.96C19.16 15.91 19.17 15.86 19.18 15.8C19.18 15.78 19.19 15.76 19.19 15.73C19.2 15.68 19.21 15.62 19.22 15.57C19.22 15.55 19.23 15.54 19.23 15.53C19.24 15.47 19.25 15.4 19.26 15.33C19.26 15.31 19.27 15.29 19.27 15.26C19.28 15.21 19.29 15.16 19.29 15.1L19.3 15.05C19.31 14.98 19.32 14.91 19.33 14.84C19.33 14.82 19.33 14.8 19.34 14.77C19.34 14.72 19.35 14.66 19.36 14.61C19.36 14.59 19.36 14.57 19.36 14.55C19.37 14.47 19.38 14.4 19.38 14.33C19.38 14.31 19.39 14.29 19.39 14.26C19.39 14.21 19.4 14.15 19.4 14.09C19.4 14.06 19.41 14.04 19.41 14.02C19.41 13.94 19.42 13.87 19.42 13.79C19.42 13.77 19.42 13.75 19.43 13.74C19.43 13.67 19.43 13.61 19.44 13.54C19.44 13.52 19.44 13.5 19.44 13.47C19.44 13.39 19.45 13.31 19.45 13.23C19.45 13.22 19.45 13.21 19.45 13.19C19.45 13.12 19.45 13.05 19.45 12.97C19.45 12.95 19.45 12.92 19.45 12.9C19.45 12.82 19.45 12.74 19.45 12.66L19.45 12.64C19.45 12.55 19.45 12.47 19.45 12.38L19.45 12.3C19.45 12.23 19.45 12.15 19.45 12.07L19.45 12.03C19.45 11.94 19.44 11.85 19.44 11.76C19.44 11.73 19.44 11.71 19.44 11.69C19.43 11.61 19.43 11.53 19.42 11.45C19.42 11.44 19.42 11.42 19.42 11.4C19.41 11.3 19.41 11.21 19.4 11.11L19.4 11.05C19.39 10.97 19.39 10.89 19.38 10.81C19.38 10.78 19.38 10.76 19.37 10.74C19.37 10.64 19.36 10.54 19.35 10.44C19.35 10.42 19.34 10.41 19.34 10.39C19.33 10.3 19.32 10.22 19.31 10.13C19.31 10.11 19.31 10.08 19.31 10.06C19.29 9.95 19.28 9.85 19.27 9.75C19.27 9.73 19.27 9.72 19.27 9.71C19.25 9.62 19.24 9.52 19.23 9.43C19.23 9.4 19.22 9.37 19.22 9.35C19.2 9.24 19.19 9.13 19.17 9.03C17.59 -1.63 6.4 0.1 6.4 0.1L6.76 2.39L0 9.17L0.29 11.78L2.85 13.28C2.97 13 3.12 12.74 3.29 12.5C4.95 10.69 8.15 9.27 9.07 8.98C9.26 8.92 9.36 8.89 9.36 8.89C4.97 14.28 5.47 20.45 5.66 21.93C5.46 21.96 5.3 22.2 5.3 22.48C5.3 22.79 5.49 23.04 5.72 23.04L7.13 23.04C4.78 23.98 2.92 25.75 1.94 27.98C1.94 27.99 1.94 27.99 1.94 27.99C1.87 28.16 1.8 28.33 1.74 28.5C1.74 28.5 1.74 28.5 1.74 28.5C1.72 28.55 1.71 28.59 1.69 28.64C1.68 28.66 1.68 28.67 1.67 28.69C1.66 28.73 1.65 28.78 1.63 28.82C1.63 28.84 1.62 28.86 1.61 28.88C1.6 28.92 1.59 28.97 1.58 29.01L1.56 29.08C1.54 29.12 1.53 29.16 1.52 29.2C1.52 29.22 1.51 29.25 1.5 29.28C1.49 29.32 1.48 29.35 1.47 29.39C1.46 29.43 1.45 29.47 1.45 29.51C1.44 29.55 1.43 29.59 1.42 29.64L0.85 29.64C0.75 29.63 0.64 29.65 0.54 29.69C0.44 29.73 0.34 29.78 0.27 29.86C0.19 29.93 0.13 30.01 0.09 30.11C0.04 30.2 0.02 30.3 0.02 30.41C0.02 30.51 0.04 30.61 0.09 30.71C0.13 30.8 0.19 30.89 0.27 30.96C0.34 31.03 0.44 31.09 0.54 31.12C0.64 31.16 0.75 31.18 0.85 31.18L20.82 31.18C20.93 31.18 21.03 31.16 21.14 31.12C21.24 31.09 21.33 31.03 21.41 30.96C21.48 30.89 21.54 30.8 21.59 30.71C21.63 30.61 21.65 30.51 21.65 30.41C21.65 30.3 21.63 30.2 21.59 30.11C21.54 30.01 21.48 29.93 21.41 29.86C21.33 29.78 21.24 29.73 21.14 29.69C21.03 29.65 20.93 29.63 20.82 29.64L20.81 29.63Z" fill="#595653" fill-opacity="1.000000" fill-rule="nonzero"/>
	<path id="Vector" d="" fill="#E7DBD0" fill-opacity="0" fill-rule="evenodd"/>
</svg>
